<svg xmlns="http://www.w3.org/2000/svg" width="200" height="200" viewBox="0 0 200 200">
  <path fill="#3B82F6" d="M57.5 100.9L32.4 76.3c-1.4-1.4-3.8-1.4-5.3 0L1.6 100.9c-1.4 1.4-1.4 3.8 0 5.3l25.1 24.6c1.4 1.4 3.8 1.4 5.3 0l25.5-24.6c1.4-1.5 1.4-3.9 0-5.3zM104.2 53.9L79.1 29.3c-1.4-1.4-3.8-1.4-5.3 0L48.3 53.9c-1.4 1.4-1.4 3.8 0 5.3l25.1 24.6c1.4 1.4 3.8 1.4 5.3 0l25.5-24.6c1.4-1.5 1.4-3.9 0-5.3zM198.5 100.9l-25.1-24.6c-1.4-1.4-3.8-1.4-5.3 0l-25.5 24.6c-1.4 1.4-1.4 3.8 0 5.3l25.1 24.6c1.4 1.4 3.8 1.4 5.3 0l25.5-24.6c1.4-1.5 1.4-3.9 0-5.3zM151.8 53.9l-25.1-24.6c-1.4-1.4-3.8-1.4-5.3 0L95.9 53.9c-1.4 1.4-1.4 3.8 0 5.3l25.1 24.6c1.4 1.4 3.8 1.4 5.3 0l25.5-24.6c1.4-1.5 1.4-3.9 0-5.3zM104.1 147.9L79 123.3c-1.4-1.4-3.8-1.4-5.3 0l-25.5 24.6c-1.4 1.4-1.4 3.8 0 5.3l25.1 24.6c1.4 1.4 3.8 1.4 5.3 0l25.5-24.6c1.4-1.5 1.4-3.9 0-5.3zM151.9 147.9l-25.1-24.6c-1.4-1.4-3.8-1.4-5.3 0l-25.5 24.6c-1.4 1.4-1.4 3.8 0 5.3l25.1 24.6c1.4 1.4 3.8 1.4 5.3 0l25.5-24.6c1.4-1.5 1.4-3.9 0-5.3z"/>
</svg> 